<?xml version="1.0" standalone="no"?>
<!DOCTYPE svg PUBLIC "-//W3C//DTD SVG 20010904//EN"
 "http://www.w3.org/TR/2001/REC-SVG-20010904/DTD/svg10.dtd">
<svg version="1.0" xmlns="http://www.w3.org/2000/svg"
 width="192.000000pt" height="192.000000pt" viewBox="0 0 192.000000 192.000000"
 preserveAspectRatio="xMidYMid meet">
<metadata>
Created by potrace 1.11, written by Peter Selinger 2001-2013
</metadata>
<g transform="translate(0.000000,192.000000) scale(0.100000,-0.100000)"
fill="#000000" stroke="none">
<path d="M835 1830 c-288 -45 -538 -228 -662 -485 -65 -135 -85 -225 -87 -380
-1 -187 39 -332 136 -482 235 -363 708 -503 1101 -325 519 236 677 899 322
1350 -109 139 -295 258 -470 302 -93 24 -254 33 -340 20z m260 -556 c103 -121
155 -257 155 -401 0 -128 -55 -219 -164 -275 -134 -69 -323 -3 -391 137 -29
60 -32 191 -7 273 20 64 79 172 94 172 4 0 8 -14 8 -30 0 -21 11 -42 34 -68
32 -34 39 -37 89 -37 45 0 60 5 81 24 46 44 55 114 30 239 -10 48 8 40 71 -34z"/>
<path d="M1070 969 c-19 -17 -66 -39 -105 -51 -113 -34 -157 -94 -121 -170 33
-68 108 -86 187 -45 64 34 89 83 88 172 -1 39 -4 82 -8 97 l-6 26 -35 -29z"/>
</g>
</svg>
